<svg xmlns="http://www.w3.org/2000/svg" version="1.1" xmlns:xlink="http://www.w3.org/1999/xlink" xmlns:svgjs="http://svgjs.dev/svgjs" width="1000" height="623" viewBox="0 0 1000 623"><g transform="matrix(1,0,0,1,-0.6060606060606233,0.2522267206477409)"><svg viewBox="0 0 396 247" data-background-color="#ffffff" preserveAspectRatio="xMidYMid meet" height="623" width="1000" xmlns="http://www.w3.org/2000/svg" xmlns:xlink="http://www.w3.org/1999/xlink"><g id="tight-bounds" transform="matrix(1,0,0,1,0.2400000000000091,-0.09999999999999432)"><svg viewBox="0 0 395.52 247.2" height="247.2" width="395.52"><g><svg></svg></g><g><svg viewBox="0 0 395.52 247.2" height="247.2" width="395.52"><g transform="matrix(1,0,0,1,138.18163445867287,47.215199999999996)"><svg viewBox="0 0 119.15673108265423 152.7696" height="152.7696" width="119.15673108265423"><g><svg viewBox="0 0 119.15673108265423 152.7696" height="152.7696" width="119.15673108265423"><g><svg viewBox="0 0 119.15673108265423 152.7696" height="152.7696" width="119.15673108265423"><g><svg viewBox="0 0 119.15673108265423 152.7696" height="152.7696" width="119.15673108265423"><g><svg viewBox="0 0 119.15673108265423 152.7696" height="152.7696" width="119.15673108265423"><g><svg viewBox="0 0 119.15673108265423 152.7696" height="152.7696" width="119.15673108265423"><g transform="matrix(1,0,0,1,0,0)"><svg width="119.15673108265423" viewBox="1.9000000953674316 -42.95000076293945 33.5 42.95000076293945" height="152.7696" data-palette-color="#77d4fc"><path d="M9.65 0L1.9 0 1.9-42.95 15-42.95 18.6-16.75 22.2-42.95 35.4-42.95 35.4 0 27.55 0 27.55-30.95 22.6 0 14.9 0 9.65-30.95 9.65 0Z" opacity="1" transform="matrix(1,0,0,1,0,0)" fill="#77d4fc" class="undefined-text-0" data-fill-palette-color="primary" id="text-0"></path></svg></g></svg></g></svg></g></svg></g></svg></g></svg></g></svg></g><g><path d="M0 123.6c0-68.262 55.338-123.6 123.6-123.6 30.402 0 58.24 10.976 79.768 29.183l-11.147 0c-19.26-14.022-42.974-22.294-68.621-22.295-64.458 0-116.712 52.254-116.712 116.712 0 64.458 52.254 116.712 116.712 116.712 25.647 0 49.361-8.272 68.621-22.295l11.147 0c-21.528 18.206-49.366 29.183-79.768 29.183-68.262 0-123.6-55.338-123.6-123.6z" fill="#77d4fc" stroke="transparent" data-fill-palette-color="tertiary"></path></g></svg></g><defs></defs></svg><rect width="395.52" height="247.2" fill="none" stroke="none" visibility="hidden"></rect></g></svg></g></svg>